# xmcd CD database file
# Copyright (C) 1993-1998 Ti Kan
#
# Track frame offsets:
#	150
#	15605
#	32210
#	46902
#	68292
#	84350
#	107167
#	133810
#	155030
#
# Disc length: 2360 seconds
#
# Revision: 1
# Processed by: cddbd v1.4b41PL1 Copyright (c) Steve Scherf et al.
# Submitted via: CDValet v3.31 - Copyright (c) 1997 Greg Leichner
#
DISCID=6c093609
DTITLE=Billy Joe Green Band - Roughin' It
DYEAR=1900
DGENRE=
TTITLE0=Heartbreaker
TTITLE1=Flirtin' With Texas
TTITLE2=Yokohama Mama
TTITLE3=Earth's Cry, Heaven's Smile
TTITLE4=Keep the Circle Stron
TTITLE5=Shot Gun Wedding Blues
TTITLE6=Little Boy Blue
TTITLE7=Hard Hearted Woman
TTITLE8=I'll Do Anything
EXTD=
EXTT0=
EXTT1=
EXTT2=
EXTT3=
EXTT4=
EXTT5=
EXTT6=
EXTT7=
EXTT8=
PLAYORDER=
